<?xml version="1.0" encoding="iso-8859-1"?>
<!-- Generator: Adobe Illustrator 19.0.0, SVG Export Plug-In . SVG Version: 6.00 Build 0)  -->
<svg version="1.1" id="Layer_1" xmlns="http://www.w3.org/2000/svg" xmlns:xlink="http://www.w3.org/1999/xlink" x="0px" y="0px"
	 viewBox="0 0 512 512" style="enable-background:new 0 0 512 512;" xml:space="preserve">
<circle style="fill:#FF633E;" cx="255.996" cy="255.997" r="255.996"/>
<path style="fill:#FF3200;" d="M512,256.001c0-10.713-0.668-21.27-1.947-31.638L378.588,92.898
	c-9.226-10.975-23.051-17.957-38.512-17.957c-6.184,0-12.1,1.128-17.57,3.173l-17.083-16.925
	c-11.328-13.047-28.028-21.305-46.663-21.305c-27.74,0-51.209,18.279-59.021,43.448c-7.967-5.299-17.528-8.392-27.814-8.392
	c-27.778,0-50.298,22.518-50.298,50.298c0,9.841,2.844,19.006,7.73,26.758c-0.423,0.364-0.843,0.718-1.272,1.095
	c0,0-52.54,44.99-85.003,105.849c-8.907,16.698-6.459,27.291,2.457,32.447l72.616,73.144c1.364,10.168,6.656,19.085,14.301,25.186
	l21.283,21.638c2.075,8.472,6.924,15.85,13.533,21.123l79.333,79.333c3.12,0.113,6.249,0.189,9.397,0.189
	C397.385,512,512,397.385,512,256.001z"/>
<path style="fill:#FFFFFF;" d="M411.184,300.49c0-21.478-17.411-38.887-38.887-38.887H139.703
	c-21.478,0-38.887,17.411-38.887,38.887c0,16.335,10.077,30.308,24.349,36.067c-4.629,6.4-7.364,14.257-7.364,22.759
	c0,20.174,15.363,36.757,35.027,38.696c-0.139,1.335-0.212,2.691-0.212,4.063c0,21.478,17.411,38.887,38.887,38.887
	c7.42,0,14.354-2.08,20.253-5.686c3.838,20.955,22.181,36.842,44.245,36.842c22.065,0,40.407-15.886,44.245-36.842
	c5.899,3.606,12.832,5.686,20.253,5.686c21.478,0,38.887-17.411,38.887-38.887c0-1.372-0.073-2.727-0.212-4.063
	c19.665-1.938,35.027-18.522,35.027-38.696c0-8.501-2.736-16.36-7.364-22.759C401.109,330.798,411.184,316.825,411.184,300.49z"/>
<path style="fill:#E1E1E3;" d="M411.184,300.49c0-21.478-17.411-38.887-38.887-38.887H256.001v210.516
	c22.065,0,40.407-15.886,44.245-36.842c5.899,3.606,12.832,5.686,20.253,5.686c21.478,0,38.887-17.411,38.887-38.887
	c0-1.372-0.073-2.727-0.212-4.063c19.665-1.938,35.027-18.522,35.027-38.696c0-8.501-2.736-16.36-7.364-22.759
	C401.109,330.798,411.184,316.825,411.184,300.49z"/>
<path style="fill:#FFC473;" d="M468.918,258.94c-32.462-60.86-85.003-105.849-85.003-105.849c-2.971-2.624-5.828-4.891-8.57-6.827
	C351.311,97.55,298.777,77.062,256.002,77.06c-0.001,0-0.002,0-0.003,0s-0.002,0-0.002,0l0,0
	c-42.776,0.002-95.309,20.489-119.343,69.206c-2.741,1.936-5.597,4.204-8.568,6.826c0,0-52.54,44.99-85.003,105.849
	c-24.415,45.771,36.436,45.711,82.162,13.34c4.772,20.314,13.063,41.791,25.229,68.11c23.072,49.916,57.788,97.366,105.525,97.371
	c0,0,0.001,0,0.002,0s0.002,0,0.003,0c47.737-0.004,82.458-47.454,105.53-97.371c12.165-26.317,20.456-47.795,25.227-68.109
	C432.484,304.651,493.333,304.71,468.918,258.94z"/>
<path style="fill:#E67500;" d="M122.125,202.441c-9.252,8.925-30.284,30.787-44.226,57.453c-13.155,25.162,19.024,20.55,45.053,1.19
	C119.662,242.141,119.483,223.622,122.125,202.441z"/>
<path style="fill:#FFB74D;" d="M468.918,258.94c-32.462-60.86-85.003-105.849-85.003-105.849c-2.971-2.624-5.828-4.891-8.57-6.827
	C351.311,97.55,298.777,77.062,256.002,77.06c-0.001,0-0.001,0-0.001,0v360.7c0,0,0.001,0,0.002,0
	c47.737-0.004,82.458-47.454,105.53-97.371c12.165-26.317,20.456-47.795,25.227-68.109
	C432.484,304.651,493.333,304.71,468.918,258.94z"/>
<path style="fill:#C06100;" d="M434.101,259.893c-13.942-26.666-34.973-48.529-44.227-57.453c2.642,21.182,2.464,39.7-0.825,58.644
	C415.078,280.443,447.256,285.055,434.101,259.893z"/>
<circle style="fill:#3C3B41;" cx="206.009" cy="276.435" r="20.435"/>
<circle style="fill:#29292B;" cx="305.994" cy="276.435" r="20.435"/>
<path style="fill:#FFFFFF;" d="M390.374,125.237c0-27.778-22.519-50.298-50.298-50.298c-8.376,0-16.266,2.058-23.212,5.68
	c-8.611-23.759-31.374-40.736-58.106-40.736c-27.74,0-51.209,18.279-59.021,43.448c-7.967-5.299-17.528-8.392-27.814-8.392
	c-27.778,0-50.298,22.518-50.298,50.298c0,18.165,9.632,34.078,24.066,42.919c1.742,21.232,19.512,37.924,41.195,37.924
	c6.885,0,13.371-1.693,19.081-4.669c7.078,19.531,25.791,33.486,47.765,33.486c22.802,0,42.095-15.026,48.518-35.716
	c6.549,4.356,14.409,6.899,22.864,6.899c21.681,0,39.453-16.692,41.194-37.924C380.742,159.315,390.374,143.402,390.374,125.237z"/>
<path style="fill:#E1E1E3;" d="M302.25,199.181c6.549,4.356,14.409,6.899,22.864,6.899c21.681,0,39.453-16.692,41.194-37.924
	c14.433-8.841,24.065-24.753,24.065-42.919c0-27.778-22.519-50.298-50.298-50.298c-8.376,0-16.266,2.058-23.212,5.68
	c-8.611-23.759-31.374-40.736-58.106-40.736c-0.925,0-1.844,0.024-2.76,0.064v194.898
	C277.806,233.887,296.042,219.181,302.25,199.181z"/>
<path style="fill:#E67500;" d="M284.117,370.288c-1.357-3.705-6.841-8.528-28.117-8.528s-26.759,4.823-28.118,8.528
	c11.383,0.26,20.536,9.55,20.536,20.996c0,0.555-0.041,1.1-0.083,1.645c2.499,0.968,5.081,1.55,7.665,1.55s5.166-0.582,7.665-1.55
	c-0.042-0.544-0.083-1.089-0.083-1.645C263.582,379.838,272.734,370.548,284.117,370.288z"/>
<path style="fill:#C06100;" d="M284.117,370.288c-1.357-3.705-6.841-8.528-28.117-8.528l0,0v32.718c2.584,0,5.166-0.582,7.665-1.55
	c-0.042-0.544-0.083-1.089-0.083-1.645C263.582,379.838,272.734,370.548,284.117,370.288z"/>
<g>
</g>
<g>
</g>
<g>
</g>
<g>
</g>
<g>
</g>
<g>
</g>
<g>
</g>
<g>
</g>
<g>
</g>
<g>
</g>
<g>
</g>
<g>
</g>
<g>
</g>
<g>
</g>
<g>
</g>
</svg>
